<?xml version="1.0" encoding="UTF-8" standalone="no"?>
<!-- Generator: Adobe Illustrator 13.0.0, SVG Export Plug-In . SVG Version: 6.00 Build 14948)  -->

<svg
   xmlns:dc="http://purl.org/dc/elements/1.1/"
   xmlns:cc="http://creativecommons.org/ns#"
   xmlns:rdf="http://www.w3.org/1999/02/22-rdf-syntax-ns#"
   xmlns:svg="http://www.w3.org/2000/svg"
   xmlns="http://www.w3.org/2000/svg"
   xmlns:sodipodi="http://sodipodi.sourceforge.net/DTD/sodipodi-0.dtd"
   xmlns:inkscape="http://www.inkscape.org/namespaces/inkscape"
   version="1.1"
   id="Layer_1"
   x="0px"
   y="0px"
   width="264.01935"
   height="66.349754"
   viewBox="0 0 264.01933 66.349755"
   enable-background="new 0 0 595.28 788.886"
   xml:space="preserve"
   inkscape:version="0.48.3.1 r9886"
   sodipodi:docname="analogist.svg"><metadata
   id="metadata249"><rdf:RDF><cc:Work
       rdf:about=""><dc:format>image/svg+xml</dc:format><dc:type
         rdf:resource="http://purl.org/dc/dcmitype/StillImage" /></cc:Work></rdf:RDF></metadata><defs
   id="defs247" /><sodipodi:namedview
   pagecolor="#ffffff"
   bordercolor="#666666"
   borderopacity="1"
   objecttolerance="10"
   gridtolerance="10"
   guidetolerance="10"
   inkscape:pageopacity="0"
   inkscape:pageshadow="2"
   inkscape:window-width="1280"
   inkscape:window-height="980"
   id="namedview245"
   showgrid="false"
   fit-margin-top="5"
   fit-margin-left="5"
   fit-margin-right="5"
   fit-margin-bottom="5"
   inkscape:zoom="2.3932482"
   inkscape:cx="94.196265"
   inkscape:cy="14.391063"
   inkscape:window-x="0"
   inkscape:window-y="22"
   inkscape:window-maximized="1"
   inkscape:current-layer="Layer_1" />










<g
   id="g219"
   transform="translate(-272.57301,-545.59824)"><path
     d="m 330.959,566.55 c -0.244,-0.569 -0.507,-1.131 -0.785,-1.685 0.187,0.597 0.475,1.104 0.785,1.685 z m -20.335,40.192 c 2.24,-0.235 4.452,-0.711 6.619,-1.432 -2.193,0.608 -4.388,1.149 -6.619,1.432 z m 20.335,-40.192 c 0.311,0.727 0.592,1.467 0.837,2.218 -0.183,-0.598 -0.386,-1.194 -0.613,-1.788 -0.077,-0.147 -0.15,-0.29 -0.224,-0.43 z m -2.172,-4.142 c 0.497,0.797 0.961,1.618 1.387,2.458 -0.031,-0.091 -0.058,-0.185 -0.081,-0.28 -0.437,-0.871 -0.871,-1.525 -1.306,-2.178 z m 4.289,13.289 c -0.01,0 -0.019,0.003 -0.028,0.003 -0.024,-0.582 -0.062,-1.165 -0.124,-1.75 -0.187,-1.771 -0.575,-3.506 -1.128,-5.182 0.703,2.29 1.071,4.617 1.135,6.943 -1.164,0.076 -2.09,1.035 -2.09,2.22 0,1.097 0.79,2.004 1.83,2.195 -0.617,4.272 -2.286,8.462 -4.975,12.333 -2.395,3.484 -5.226,5.88 -8.71,7.621 -3.21,1.785 -6.568,2.537 -10.071,2.755 -0.132,-0.898 -0.593,-1.681 -1.262,-2.234 3.521,-0.147 7.015,-1.152 10.245,-2.913 5.879,-3.486 10.017,-8.712 11.541,-15.464 1.959,-8.058 -0.218,-15.679 -5.227,-21.993 -0.144,-0.174 -0.305,-0.328 -0.452,-0.498 1.971,-0.016 3.563,-1.615 3.563,-3.589 0,-1.982 -1.607,-3.59 -3.592,-3.59 -1.982,0 -3.591,1.607 -3.591,3.59 0,0.064 0.016,0.124 0.019,0.188 -8.509,-6.619 -20.664,-7.619 -30.138,-2.417 7.186,-3.702 15.897,-4.138 23.52,-1.089 2.431,1.001 4.669,2.337 6.663,3.949 0.272,1.529 1.51,2.71 3.062,2.914 2.54,2.854 4.451,6.276 5.521,10.122 1.479,5.712 1.11,11.422 -1.706,16.734 -0.042,0.074 -0.562,0.983 -1.348,2.188 0.099,-0.329 0.168,-0.67 0.168,-1.031 0,-0.886 -0.333,-1.687 -0.865,-2.312 1.571,-3.377 2.286,-7.1 2.008,-11.006 -0.437,-6.097 -3.485,-11.323 -8.058,-15.462 -3.911,-3.258 -8.676,-5.175 -13.655,-5.66 -0.564,-1.244 -1.811,-2.114 -3.267,-2.114 -1.539,0 -2.841,0.974 -3.352,2.333 -4.862,0.833 -9.414,3.004 -13.174,6.191 -0.269,-0.933 -1.12,-1.619 -2.139,-1.619 -1.235,0 -2.237,1 -2.237,2.234 0,1.003 0.663,1.839 1.57,2.123 -0.738,0.827 -1.435,1.694 -2.076,2.61 0.662,-0.907 1.377,-1.77 2.128,-2.594 0.196,0.056 0.4,0.096 0.614,0.096 1.233,0 2.235,-0.998 2.235,-2.235 0,-0.189 -0.031,-0.371 -0.075,-0.547 3.762,-3.196 8.268,-5.411 13.136,-6.205 -0.135,0.378 -0.222,0.779 -0.222,1.203 0,0.559 0.138,1.081 0.366,1.552 -0.035,0.005 -0.074,0.021 -0.106,0.021 -11.115,1.735 -18.899,11.509 -20.273,22.133 -0.545,0.63 -0.886,1.44 -0.886,2.339 0,0.785 0.259,1.506 0.687,2.098 0.01,0.225 0.029,0.449 0.044,0.674 -0.015,-0.218 -0.018,-0.436 -0.027,-0.653 0.634,0.863 1.639,1.431 2.785,1.464 0.012,0.085 0.018,0.17 0.03,0.256 0.841,4.71 2.733,8.893 5.553,12.462 -0.607,0.399 -1.01,1.085 -1.01,1.866 0,1.234 1,2.234 2.235,2.234 0.723,0 1.358,-0.349 1.767,-0.881 3.188,2.711 6.594,4.6 10.619,5.659 1.089,0.22 1.962,0.436 2.832,0.654 0.357,0.049 0.716,0.071 1.074,0.107 0.38,0.137 0.784,0.225 1.212,0.225 0.211,0 0.414,-0.027 0.615,-0.062 1.57,0.11 3.111,0.048 4.634,-0.144 -1.484,0.154 -2.98,0.179 -4.481,0.12 1.54,-0.336 2.697,-1.66 2.802,-3.273 3.314,-0.248 6.567,-1.116 9.606,-2.635 0.654,-0.437 1.307,-0.655 1.96,-1.09 6.929,-4.677 11.364,-11.836 12.347,-19.719 0.073,0.008 0.144,0.022 0.219,0.022 1.235,0 2.235,-1.001 2.235,-2.236 0.001,-1.234 -0.999,-2.234 -2.235,-2.234 z m -26.722,-22.218 c 3.702,0.654 6.754,1.525 10.019,3.701 3.05,2.177 5.444,4.573 7.405,7.841 3.899,6.239 3.948,13.699 0.946,20.039 -0.577,-0.527 -1.324,-0.86 -2.152,-0.921 0.527,-1.136 0.935,-2.355 1.206,-3.656 1.307,-6.316 -0.219,-12.631 -4.355,-17.422 -3.634,-4.129 -8.643,-6.5 -13.986,-7.122 0.135,-0.377 0.221,-0.777 0.221,-1.2 0,-0.484 -0.099,-0.945 -0.272,-1.366 0.321,0.035 0.643,0.057 0.968,0.106 z m -1.115,2.907 c 6.5,0.736 12.43,4.282 15.924,10.159 3.202,5.602 3.27,12.12 0.221,17.703 -1.531,0.411 -2.664,1.794 -2.664,3.454 0,0.015 0.004,0.029 0.005,0.044 -2.071,1.987 -4.521,3.175 -7.36,3.843 -4.791,1.088 -10.453,-0.653 -12.195,-5.226 2.177,3.049 6.097,4.572 9.8,4.354 7.839,-0.436 13.284,-8.275 12.848,-15.679 -0.435,-5.662 -3.702,-10.454 -8.492,-13.722 -3.05,-1.961 -6.533,-2.831 -10.018,-3.048 -0.283,0 -0.563,0.012 -0.844,0.021 1.213,-0.134 2.235,-0.866 2.775,-1.903 z m -6.289,34.55 c 4.792,3.266 10.889,3.484 15.898,1.09 1.547,-0.811 2.929,-1.81 4.143,-2.96 0.298,0.725 0.832,1.319 1.5,1.715 -1.669,1.517 -3.577,2.734 -5.643,3.64 -7.188,3.048 -15.898,0.871 -20.253,-5.881 -2.832,-4.355 -2.832,-10.019 0,-14.155 -3.049,5.663 -0.871,12.849 4.355,16.551 z m 17.858,-23.52 c -3.266,-5.008 -9.362,-7.185 -15.025,-6.968 -7.841,0.436 -14.592,5.881 -16.986,13.282 -0.443,1.549 -0.771,3.098 -0.96,4.674 -0.511,-0.573 -1.194,-0.987 -1.978,-1.141 0.643,-3.2 1.965,-6.322 4.026,-9.192 3.268,-4.572 7.623,-7.404 13.066,-8.277 6.968,-1.307 14.373,1.307 17.857,7.622 z m -26.786,1.961 c -6.75,7.839 -4.573,20.252 3.485,26.566 0.652,0.437 1.088,0.653 1.523,1.089 2.659,1.772 5.497,2.855 8.381,3.322 -0.686,0.45 -1.193,1.131 -1.444,1.929 -1.919,-0.432 -3.809,-1.109 -5.629,-2.203 -1.961,-1.306 -3.485,-2.612 -5.227,-4.137 -6.968,-6.967 -8.058,-19.38 -1.089,-26.566 z m -8.778,7.824 c -0.027,0 -0.053,-0.008 -0.08,-0.008 -1.07,0 -2.02,0.478 -2.677,1.22 0.689,-5.127 2.887,-10.054 6.31,-14.047 3.484,-3.699 7.838,-6.531 13.066,-7.621 0.372,-0.08 0.745,-0.135 1.117,-0.196 0.593,1.01 1.657,1.698 2.897,1.764 -2.956,0.162 -5.772,0.851 -8.589,2.354 -2.612,1.523 -4.79,3.049 -6.751,5.225 -2.395,2.832 -4.138,6.098 -5.009,9.8 -0.109,0.508 -0.201,1.01 -0.284,1.509 z m 13.352,26.366 c -0.872,-0.652 -1.524,-1.089 -2.396,-1.523 -0.916,-0.572 -1.708,-1.209 -2.445,-1.901 0.219,-0.346 0.351,-0.753 0.351,-1.193 0,-1.233 -1,-2.234 -2.235,-2.234 -0.355,0 -0.686,0.09 -0.984,0.237 -0.334,-0.391 -0.668,-0.779 -1.002,-1.226 -2.441,-3.525 -3.89,-7.427 -4.333,-11.391 0.85,-0.093 1.613,-0.467 2.179,-1.046 0.41,4.427 2.22,8.533 5.044,11.922 0,0 1.839,2.26 3.862,3.813 0.269,0.249 0.556,0.465 0.87,0.622 0.064,0.037 0.131,0.073 0.197,0.109 0.163,0.098 0.325,0.188 0.487,0.268 2.437,1.318 4.978,2.404 7.623,3.044 -0.008,0.097 -0.029,0.189 -0.029,0.288 0,1.482 0.898,2.755 2.181,3.303 -3.263,-0.482 -6.487,-1.362 -9.37,-3.092 z m -3.485,-13.501 c -2.612,-4.575 -3.483,-10.018 -1.089,-14.81 -2.177,5.444 0,11.107 3.266,15.462 2.179,2.395 4.574,4.138 7.623,5.226 2.612,0.871 5.442,1.308 8.276,1.089 4.612,-0.628 8.811,-2.485 12.035,-5.927 0.346,0.11 0.706,0.186 1.088,0.186 0.834,0 1.591,-0.295 2.2,-0.771 -0.872,1.209 -1.877,2.461 -2.871,3.388 -1.834,1.645 -3.931,2.971 -6.354,3.779 -0.437,0.215 -0.872,0.435 -1.308,0.651 -8.495,2.831 -18.075,-0.436 -22.866,-8.273 z"
     id="path221"
     inkscape:connector-curvature="0"
     style="fill:#ffffff" /><g
     id="g223"><path
       d="m 362.499,566.359 v 21.693 h -1.542 v -5.399 c -0.9,1.832 -2.25,3.278 -4.05,4.339 -1.8,1.061 -3.729,1.591 -5.785,1.591 -3.149,0 -5.85,-1.116 -8.099,-3.351 -2.25,-2.233 -3.374,-4.908 -3.374,-8.026 0,-3.117 1.124,-5.792 3.374,-8.026 2.249,-2.233 4.949,-3.351 8.099,-3.351 2.057,0 4.025,0.547 5.905,1.64 1.881,1.093 3.189,2.539 3.93,4.338 v -5.447 h 1.542 z m -21.308,10.895 c 0,2.699 0.988,5.037 2.965,7.014 1.977,1.977 4.322,2.965 7.038,2.965 2.716,0 5.038,-0.988 6.966,-2.965 1.929,-1.977 2.893,-4.322 2.893,-7.038 0,-2.716 -0.972,-5.069 -2.916,-7.062 -1.945,-1.992 -4.267,-2.989 -6.966,-2.989 -2.7,0 -5.038,1.005 -7.015,3.014 -1.977,2.009 -2.965,4.361 -2.965,7.061 z"
       id="path225"
       inkscape:connector-curvature="0"
       style="fill:#ffffff" /><path
       d="m 369.825,588.052 h -1.542 v -21.693 h 1.542 v 4.387 c 1.64,-3.277 4.436,-4.917 8.389,-4.917 2.699,0 4.965,0.933 6.797,2.796 1.832,1.864 2.748,4.13 2.748,6.798 v 12.63 h -1.543 v -12.63 c 0,-2.218 -0.779,-4.146 -2.338,-5.785 -1.56,-1.639 -3.446,-2.459 -5.664,-2.459 -2.218,0 -4.17,0.82 -5.857,2.459 -1.687,1.639 -2.531,3.567 -2.531,5.785 v 12.629 z"
       id="path227"
       inkscape:connector-curvature="0"
       style="fill:#ffffff" /><path
       d="m 415.188,566.359 v 21.693 h -1.542 v -5.399 c -0.9,1.832 -2.25,3.278 -4.05,4.339 -1.8,1.061 -3.729,1.591 -5.785,1.591 -3.149,0 -5.85,-1.116 -8.099,-3.351 -2.25,-2.233 -3.374,-4.908 -3.374,-8.026 0,-3.117 1.124,-5.792 3.374,-8.026 2.249,-2.233 4.949,-3.351 8.099,-3.351 2.057,0 4.025,0.547 5.905,1.64 1.881,1.093 3.189,2.539 3.93,4.338 v -5.447 h 1.542 z m -21.308,10.895 c 0,2.699 0.988,5.037 2.965,7.014 1.977,1.977 4.322,2.965 7.038,2.965 2.716,0 5.038,-0.988 6.966,-2.965 1.929,-1.977 2.893,-4.322 2.893,-7.038 0,-2.716 -0.972,-5.069 -2.916,-7.062 -1.945,-1.992 -4.267,-2.989 -6.966,-2.989 -2.7,0 -5.038,1.005 -7.015,3.014 -1.977,2.009 -2.965,4.361 -2.965,7.061 z"
       id="path229"
       inkscape:connector-curvature="0"
       style="fill:#ffffff" /><path
       d="m 429.215,587.136 v 1.35 c -2.282,0 -4.227,-0.763 -5.833,-2.29 -1.607,-1.525 -2.41,-3.478 -2.41,-5.856 v -28.442 h 1.542 v 28.442 c 0,1.961 0.651,3.584 1.953,4.869 1.302,1.285 2.884,1.927 4.748,1.927 z"
       id="path231"
       inkscape:connector-curvature="0"
       style="fill:#ffffff" /><path
       d="m 433.265,585.135 c -2.218,-2.297 -3.326,-4.973 -3.326,-8.026 0,-3.053 1.124,-5.695 3.374,-7.93 2.249,-2.233 4.957,-3.351 8.123,-3.351 3.165,0 5.864,1.117 8.099,3.351 2.233,2.234 3.351,4.886 3.351,7.954 0,3.069 -1.093,5.745 -3.278,8.026 -2.186,2.282 -4.837,3.423 -7.954,3.423 h -0.434 c -3.086,10e-4 -5.738,-1.148 -7.955,-3.447 z m 18.077,-7.905 c 0,-2.716 -0.972,-5.069 -2.916,-7.062 -1.945,-1.992 -4.267,-2.989 -6.966,-2.989 -2.7,0 -5.038,1.005 -7.015,3.014 -1.977,2.009 -2.965,4.362 -2.965,7.062 0,2.699 0.988,5.037 2.965,7.014 1.977,1.977 4.322,2.965 7.038,2.965 2.716,0 5.038,-0.988 6.966,-2.965 1.929,-1.977 2.893,-4.323 2.893,-7.039 z"
       id="path233"
       inkscape:connector-curvature="0"
       style="fill:#ffffff" /><path
       d="m 477.614,566.359 h 1.543 v 19.669 c 0,3.728 -1.029,6.668 -3.086,8.821 -2.057,2.153 -4.757,3.23 -8.099,3.23 -1.832,0 -3.615,-0.418 -5.351,-1.254 -1.736,-0.836 -3.086,-1.928 -4.05,-3.278 v -2.217 c 0.836,1.542 2.146,2.827 3.929,3.856 1.784,1.028 3.607,1.542 5.472,1.542 2.828,0 5.142,-0.956 6.942,-2.868 1.799,-1.912 2.699,-4.523 2.699,-7.833 v -3.23 c -0.868,1.769 -2.234,3.182 -4.098,4.242 -1.864,1.061 -3.793,1.591 -5.785,1.591 -3.149,0 -5.85,-1.116 -8.099,-3.35 -2.25,-2.233 -3.374,-4.909 -3.374,-8.026 0,-3.117 1.124,-5.793 3.374,-8.027 2.249,-2.233 4.949,-3.35 8.099,-3.35 2.089,0 4.041,0.522 5.857,1.566 1.815,1.045 3.157,2.482 4.025,4.314 v -5.398 z m -19.813,10.895 c 0,2.731 0.988,5.085 2.965,7.062 1.977,1.977 4.322,2.965 7.038,2.965 2.716,0 5.038,-0.988 6.966,-2.965 1.929,-1.977 2.893,-4.33 2.893,-7.062 0,-2.732 -0.964,-5.086 -2.893,-7.062 -1.928,-1.977 -4.25,-2.965 -6.966,-2.965 -2.716,0 -5.062,0.988 -7.038,2.965 -1.976,1.977 -2.965,4.331 -2.965,7.062 z"
       id="path235"
       inkscape:connector-curvature="0"
       style="fill:#ffffff" /><path
       d="m 485.102,565.17 h 2.765 c 0.235,0 0.46,0.005 0.675,0.016 0.214,0.011 0.374,0.092 0.481,0.241 0.107,0.15 0.166,0.343 0.177,0.578 0.011,0.236 0.017,0.493 0.017,0.771 v 2.796 11.152 5.271 c 0,0.278 0.005,0.589 0.016,0.932 0.011,0.343 -0.037,0.601 -0.145,0.771 -0.086,0.15 -0.278,0.269 -0.578,0.354 -0.15,0.043 -0.312,0.054 -0.482,0.032 -0.172,-0.021 -0.343,-0.032 -0.514,-0.032 h -1.896 c -0.236,0 -0.455,-0.011 -0.659,-0.032 -0.203,-0.021 -0.369,-0.085 -0.498,-0.192 -0.107,-0.107 -0.172,-0.268 -0.192,-0.482 -0.021,-0.214 -0.032,-0.438 -0.032,-0.675 v -2.796 -11.73 -4.692 c 0,-0.3 -0.006,-0.653 -0.017,-1.061 -0.011,-0.406 0.037,-0.696 0.145,-0.867 0.086,-0.129 0.226,-0.236 0.418,-0.321 0.064,0 0.123,-0.006 0.177,-0.017 0.054,-0.011 0.099,-0.017 0.142,-0.017 z"
       id="path237"
       inkscape:connector-curvature="0"
       style="fill:#ffffff" /><path
       d="m 501.299,564.656 c 4.156,-0.064 7.017,1.168 8.581,3.696 0.214,0.343 0.38,0.696 0.498,1.061 0.118,0.365 0.23,0.761 0.338,1.188 0.043,0.172 0.059,0.37 0.048,0.595 -0.011,0.225 -0.06,0.392 -0.145,0.498 -0.107,0.129 -0.257,0.209 -0.45,0.241 -0.192,0.032 -0.407,0.048 -0.643,0.048 h -2.024 c -0.193,0 -0.386,0 -0.578,0 -0.193,0 -0.354,-0.021 -0.482,-0.063 -0.257,-0.107 -0.418,-0.278 -0.482,-0.515 -0.064,-0.235 -0.15,-0.471 -0.257,-0.707 -0.086,-0.214 -0.204,-0.438 -0.354,-0.675 -0.15,-0.235 -0.311,-0.418 -0.482,-0.547 -0.3,-0.214 -0.589,-0.396 -0.867,-0.546 -0.257,-0.107 -0.573,-0.198 -0.948,-0.273 -0.375,-0.074 -0.761,-0.123 -1.157,-0.145 -0.396,-0.021 -0.787,-0.011 -1.173,0.032 -0.386,0.043 -0.729,0.129 -1.028,0.257 -0.493,0.215 -0.873,0.467 -1.141,0.756 -0.269,0.289 -0.456,0.723 -0.562,1.302 -0.043,0.149 -0.054,0.316 -0.032,0.498 0.021,0.182 0.053,0.326 0.097,0.434 0.171,0.45 0.412,0.767 0.723,0.948 0.311,0.181 0.68,0.358 1.108,0.53 0.236,0.107 0.477,0.188 0.724,0.241 0.246,0.054 0.498,0.123 0.755,0.208 0.579,0.193 1.173,0.359 1.784,0.499 0.61,0.14 1.216,0.294 1.815,0.466 0.107,0.043 0.214,0.064 0.321,0.064 0.107,0 0.214,0.021 0.321,0.063 0.429,0.15 0.873,0.29 1.334,0.418 0.46,0.129 0.873,0.312 1.237,0.547 0.578,0.364 1.076,0.729 1.494,1.093 0.418,0.364 0.809,0.835 1.173,1.414 0.107,0.171 0.198,0.364 0.273,0.578 0.075,0.215 0.155,0.429 0.241,0.643 0.021,0.064 0.032,0.124 0.032,0.177 0,0.054 0.011,0.103 0.032,0.145 0.085,0.343 0.128,0.771 0.128,1.286 0.043,0.107 0.043,0.214 0,0.321 v 0.578 c -0.043,0.236 -0.08,0.461 -0.112,0.675 -0.032,0.215 -0.08,0.429 -0.145,0.643 -0.128,0.386 -0.268,0.739 -0.418,1.061 -0.149,0.321 -0.332,0.633 -0.546,0.933 -0.086,0.107 -0.172,0.198 -0.257,0.272 -0.086,0.076 -0.161,0.167 -0.226,0.273 -0.107,0.129 -0.225,0.252 -0.354,0.37 -0.128,0.117 -0.268,0.23 -0.418,0.337 -0.107,0.086 -0.22,0.172 -0.337,0.257 -0.118,0.086 -0.241,0.172 -0.37,0.258 -0.364,0.235 -0.744,0.429 -1.141,0.578 -0.396,0.15 -0.809,0.301 -1.237,0.45 -0.3,0.106 -0.61,0.177 -0.932,0.209 -0.322,0.032 -0.643,0.08 -0.964,0.145 -0.15,0.043 -0.295,0.059 -0.435,0.048 -0.14,-0.011 -0.272,0.005 -0.401,0.049 h -0.257 c -0.044,0 -0.103,-0.006 -0.177,-0.017 -0.076,-0.011 -0.135,-0.006 -0.177,0.017 -0.107,0.021 -0.29,0.031 -0.547,0.031 -0.257,0 -0.439,-0.011 -0.546,-0.031 h -0.321 c -0.15,-0.044 -0.306,-0.06 -0.467,-0.049 -0.16,0.011 -0.305,-0.005 -0.434,-0.048 -0.107,0 -0.204,-0.006 -0.289,-0.017 -0.086,-0.011 -0.183,-0.026 -0.289,-0.048 -0.258,-0.064 -0.525,-0.118 -0.804,-0.161 -0.279,-0.043 -0.536,-0.107 -0.771,-0.192 -1.05,-0.343 -1.972,-0.776 -2.764,-1.302 -0.793,-0.524 -1.457,-1.216 -1.992,-2.072 -0.344,-0.515 -0.611,-1.125 -0.804,-1.832 -0.043,-0.129 -0.07,-0.258 -0.08,-0.386 -0.012,-0.129 -0.038,-0.268 -0.081,-0.418 -0.043,-0.171 -0.075,-0.38 -0.096,-0.627 -0.021,-0.246 0.021,-0.434 0.128,-0.562 0.107,-0.171 0.263,-0.272 0.466,-0.305 0.204,-0.032 0.435,-0.049 0.691,-0.049 h 2.024 c 0.172,0 0.354,0 0.547,0 0.192,0 0.364,0.032 0.514,0.097 0.235,0.107 0.375,0.284 0.418,0.53 0.043,0.247 0.117,0.498 0.225,0.755 0.086,0.258 0.193,0.493 0.322,0.707 0.128,0.215 0.268,0.418 0.417,0.611 0.107,0.128 0.226,0.246 0.354,0.354 0.129,0.107 0.258,0.203 0.386,0.289 0.472,0.3 1.05,0.546 1.735,0.739 0.15,0.043 0.295,0.064 0.435,0.064 0.139,0 0.294,0.021 0.466,0.063 h 0.16 c 0.172,0.044 0.407,0.064 0.707,0.064 0.3,0 0.536,-0.021 0.707,-0.064 0.064,-0.021 0.172,-0.031 0.322,-0.031 0.106,-0.021 0.219,-0.038 0.337,-0.049 0.117,-0.011 0.23,-0.037 0.338,-0.08 0.728,-0.193 1.307,-0.45 1.735,-0.771 0.428,-0.321 0.728,-0.856 0.899,-1.606 0.043,-0.15 0.049,-0.321 0.017,-0.515 -0.032,-0.192 -0.07,-0.343 -0.113,-0.45 -0.214,-0.578 -0.578,-1.028 -1.092,-1.35 -0.064,-0.043 -0.183,-0.106 -0.354,-0.192 -0.322,-0.193 -0.681,-0.349 -1.077,-0.466 -0.396,-0.118 -0.787,-0.241 -1.173,-0.37 -0.15,-0.043 -0.295,-0.08 -0.434,-0.112 -0.14,-0.032 -0.295,-0.069 -0.467,-0.112 -0.343,-0.107 -0.69,-0.198 -1.044,-0.273 -0.354,-0.075 -0.691,-0.166 -1.013,-0.273 -0.107,-0.042 -0.192,-0.064 -0.257,-0.064 -0.065,0 -0.14,-0.021 -0.225,-0.063 -0.172,-0.043 -0.327,-0.086 -0.467,-0.129 -0.14,-0.043 -0.294,-0.085 -0.466,-0.129 -0.493,-0.171 -0.964,-0.348 -1.414,-0.53 -0.45,-0.182 -0.867,-0.391 -1.253,-0.626 -0.493,-0.322 -0.943,-0.696 -1.35,-1.125 -0.407,-0.429 -0.729,-0.921 -0.965,-1.479 -0.086,-0.193 -0.149,-0.391 -0.192,-0.595 -0.043,-0.203 -0.097,-0.423 -0.161,-0.659 -0.043,-0.192 -0.075,-0.471 -0.096,-0.835 -0.022,-0.364 -0.012,-0.664 0.031,-0.9 0.021,-0.085 0.032,-0.214 0.032,-0.386 0.064,-0.235 0.118,-0.46 0.161,-0.675 0.043,-0.214 0.106,-0.428 0.192,-0.643 0.321,-0.75 0.734,-1.387 1.237,-1.912 0.504,-0.524 1.088,-1.001 1.752,-1.43 0.429,-0.258 0.889,-0.461 1.382,-0.611 0.492,-0.149 1.018,-0.289 1.575,-0.417 0.214,-0.043 0.423,-0.069 0.626,-0.081 0.204,-0.011 0.412,-0.037 0.627,-0.08 0.064,-0.021 0.166,-0.021 0.306,0 0.145,0.019 0.236,0.009 0.279,-0.034 z"
       id="path239"
       inkscape:connector-curvature="0"
       style="fill:#ffffff" /><path
       d="m 526.56,565.138 h 3.278 c 0.278,0 0.551,0.005 0.819,0.016 0.268,0.011 0.487,0.07 0.659,0.177 0.063,0.043 0.112,0.112 0.145,0.209 0.033,0.097 0.059,0.198 0.08,0.306 v 0.16 c 0.021,0.086 0.032,0.183 0.032,0.289 0,0.107 0,0.215 0,0.322 v 1.253 c 0,0.15 0.005,0.295 0.016,0.434 0.011,0.14 -0.005,0.273 -0.048,0.402 -0.107,0.364 -0.321,0.557 -0.643,0.578 -0.322,0.021 -0.707,0.032 -1.157,0.032 h -3.278 c -0.429,0 -0.798,0.016 -1.108,0.048 -0.31,0.032 -0.52,0.23 -0.627,0.595 -0.021,0.107 -0.021,0.204 0,0.289 0.021,0.086 0.011,0.183 -0.032,0.289 -0.021,0.129 -0.027,0.273 -0.016,0.435 0.011,0.16 0.016,0.305 0.016,0.434 v 2.86 9.256 3.021 c 0,0.343 -0.016,0.638 -0.048,0.884 -0.032,0.247 -0.166,0.424 -0.401,0.53 -0.15,0.043 -0.322,0.064 -0.515,0.064 -0.193,0 -0.375,0 -0.547,0 H 521 c -0.236,0 -0.456,-0.011 -0.659,-0.032 -0.204,-0.021 -0.359,-0.097 -0.466,-0.225 -0.107,-0.172 -0.161,-0.391 -0.161,-0.659 0,-0.268 0,-0.541 0,-0.819 v -3.214 -8.935 -2.731 c 0,-0.149 0.005,-0.306 0.017,-0.466 0.011,-0.161 -0.006,-0.306 -0.049,-0.434 -0.021,-0.107 -0.021,-0.204 0,-0.29 0.021,-0.085 0.011,-0.171 -0.032,-0.257 -0.107,-0.364 -0.326,-0.562 -0.658,-0.595 -0.333,-0.032 -0.724,-0.048 -1.173,-0.048 h -2.989 c -0.236,0 -0.498,0.006 -0.787,0.016 -0.289,0.012 -0.52,-0.005 -0.691,-0.048 -0.172,-0.064 -0.3,-0.161 -0.386,-0.289 -0.063,-0.107 -0.102,-0.246 -0.112,-0.418 -0.011,-0.171 -0.016,-0.343 -0.016,-0.515 v -1.574 c 0,-0.278 0.016,-0.524 0.048,-0.739 0.032,-0.214 0.134,-0.375 0.306,-0.482 0.064,-0.042 0.182,-0.085 0.354,-0.128 h 0.16 12.854 z"
       id="path241"
       inkscape:connector-curvature="0"
       style="fill:#ffffff" /></g></g></svg>